# xmcd
#
# Track frame offsets:
#	150
#	21545
#	39540
#	60784
#	83113
#	101929
#	122402
#	137954
#	155528
#	176355
#	197629
#	221130
#
# Disc length: 3219 seconds
#
# Revision: 1
# Processed by: cddbd v1.5.2PL0 Copyright (c) Steve Scherf et al.
# Submitted via: audiograbber 1.83.01
#
DISCID=a50c910c
DTITLE=Eva_Winskill - Step_Volume_08 CD2
DYEAR=1998
DGENRE=Aerobic
TTITLE0=Ricky Martin - La copa de la vida - 128bpm
TTITLE1=The Tamperer feat. Maya - Feel it - 128bpm
TTITLE2=Neja - Restless - 129bpm
TTITLE3=Billy Crawford - Urgently in love - 129bpm
TTITLE4=Another Level - Freak me - 130bpm
TTITLE5=Jennifer Paige - Crush - 130bpm
TTITLE6=The Tamperer feat. Maya - If you buy this record - 131bpm
TTITLE7=Lighthouse Family - Question of faith - 131bpm
TTITLE8=Louise - Let's go round again - 132bpm
TTITLE9=George Michael - Outside - 132bpm
TTITLE10=Robbie Williams - Millenium - 95bpm
TTITLE11=Natalie Imbruglia - Smoke - 95bpm
EXTD=
EXTT0=
EXTT1=
EXTT2=
EXTT3=
EXTT4=
EXTT5=
EXTT6=
EXTT7=
EXTT8=
EXTT9=
EXTT10=
EXTT11=
PLAYORDER=
